# xmcd
#
# Track frame offsets:
#	150
#	5358
#	16236
#	17194
#	31674
#	37996
#	41923
#	50052
#	51708
#	61003
#	68989
#	80709
#	82265
#	92533
#	93696
#	112612
#	117658
#	137253
#	148385
#	162583
#	165382
#	175528
#	192771
#
# Disc length: 2822 seconds
#
# Revision: 1
# Processed by: cddbd v1.4b41PL1 Copyright (c) Steve Scherf et al.
# Submitted via: audiograbber 1.80
#
DISCID=360b0417
DTITLE=Les Caramels Fous - Il était une fois tatahouine
DYEAR=1900
DGENRE=
TTITLE0=Il était une fois ...
TTITLE1=Place au grand Sultan Abdel Amine
TTITLE2=Il était une fois le désert ...
TTITLE3=Le boudin
TTITLE4=Ah la la quelle histoire !
TTITLE5=Qui va passer la nuit à faire des étincelles ?
TTITLE6=Pas de femmes
TTITLE7=La position du général est formelle...
TTITLE8=La révérence de la colonnelle
TTITLE9=Un homme !
TTITLE10=Qui aurait jamais imaginé ...
TTITLE11=Entr' acte
TTITLE12=La pomme de terre
TTITLE13=Dur d'être légionnaire
TTITLE14=Au fond de la Casbah
TTITLE15=Au Harem's bar...
TTITLE16=Le petit accessoire
TTITLE17=La chanson de sheherazade
TTITLE18=On ne peut pas impunément
TTITLE19=Qui c'est qu'a dit Mou?
TTITLE20=Les Caramels Fous
TTITLE21=Lady Jane's Mambo
TTITLE22=Les voix qui se sont tues
EXTD=Bastille Productions\nCompagnie L"es Caramels Fous \n20 bis Boulevard de L
EXTD=a Bastille
EXTT0=
EXTT1=
EXTT2=
EXTT3=
EXTT4=
EXTT5=
EXTT6=
EXTT7=
EXTT8=
EXTT9=
EXTT10=
EXTT11=
EXTT12=
EXTT13=
EXTT14=
EXTT15=
EXTT16=
EXTT17=
EXTT18=
EXTT19=
EXTT20=
EXTT21=
EXTT22=
PLAYORDER=
